<svg width="46" height="34" viewBox="0 0 46 34" fill="none" xmlns="http://www.w3.org/2000/svg">
<g id="3 User">
<path id="Fill 1" d="M22.8936 22.2915C15.7061 22.2915 9.6416 23.466 9.6416 27.9988C9.6416 32.5335 15.7453 33.6667 22.8936 33.6667C30.081 33.6667 36.1455 32.4922 36.1455 27.9594C36.1455 23.4247 30.0419 22.2915 22.8936 22.2915Z" fill="#1B7339"/>
<path id="Fill 3" opacity="0.4" d="M22.8934 17.9731C27.7603 17.9731 31.6627 14.0482 31.6627 9.15332C31.6627 4.25654 27.7603 0.333496 22.8934 0.333496C18.0265 0.333496 14.124 4.25654 14.124 9.15332C14.124 14.0482 18.0265 17.9731 22.8934 17.9731Z" fill="#1B7339"/>
<path id="Fill 6" opacity="0.4" d="M41.9325 11.2071C43.1917 6.25404 39.5 1.80566 34.7992 1.80566C34.288 1.80566 33.7993 1.86195 33.3217 1.95763C33.2583 1.97264 33.1874 2.00454 33.1501 2.06082C33.1072 2.13212 33.1389 2.2278 33.1856 2.28971C34.5977 4.28219 35.4092 6.70807 35.4092 9.31217C35.4092 11.8075 34.6648 14.1339 33.3591 16.0645C33.2247 16.2633 33.3441 16.5316 33.581 16.5729C33.9094 16.6311 34.2451 16.6611 34.5884 16.6705C38.0114 16.7605 41.0838 14.5448 41.9325 11.2071Z" fill="#1B7339"/>
<path id="Fill 8" d="M45.5186 22.8689C44.8918 21.5256 43.379 20.6044 41.0789 20.1523C39.9932 19.8859 37.0552 19.5106 34.3224 19.5613C34.2813 19.5669 34.2589 19.595 34.2552 19.6138C34.2496 19.6401 34.2608 19.6851 34.3149 19.7132C35.5778 20.3418 40.4596 23.0753 39.8459 28.8408C39.8198 29.0903 40.0194 29.306 40.2675 29.2685C41.4688 29.0959 44.5598 28.428 45.5186 26.3473C46.0484 25.2479 46.0484 23.9703 45.5186 22.8689Z" fill="#1B7339"/>
<path id="Fill 11" opacity="0.4" d="M12.6759 1.95812C12.2003 1.86056 11.7097 1.80615 11.1985 1.80615C6.49766 1.80615 2.80599 6.25452 4.06702 11.2076C4.91392 14.5453 7.98627 16.761 11.4093 16.671C11.7526 16.6616 12.0902 16.6297 12.4166 16.5734C12.6536 16.5321 12.7729 16.2638 12.6386 16.065C11.3328 14.1325 10.5885 11.808 10.5885 9.31266C10.5885 6.70668 11.4019 4.28081 12.814 2.2902C12.8588 2.22829 12.8923 2.1326 12.8476 2.06131C12.8103 2.00315 12.7412 1.97313 12.6759 1.95812Z" fill="#1B7339"/>
<path id="Fill 13" d="M4.91958 20.1517C2.61952 20.6039 1.10852 21.525 0.481742 22.8684C-0.0499035 23.9697 -0.0499035 25.2473 0.481742 26.3487C1.44057 28.4274 4.53157 29.0972 5.73291 29.268C5.98101 29.3055 6.17874 29.0916 6.15263 28.8402C5.5389 23.0766 10.4207 20.3431 11.6855 19.7146C11.7377 19.6845 11.7489 19.6414 11.7433 19.6132C11.7396 19.5945 11.719 19.5663 11.678 19.5626C8.9433 19.5101 6.00712 19.8853 4.91958 20.1517Z" fill="#1B7339"/>
</g>
</svg>
